
 <svg
                width="24"
                height="24"
                viewBox="0 0 24 24"
                fill="none"
                xmlns="http://www.w3.org/2000/svg"
              >
                <path
                  fill-rule="evenodd"
                  clip-rule="evenodd"
                  d="M8.72206 2.37931C5.57488 3.11753 3.11753 5.57488 2.37931 8.72206C1.87356 10.8781 1.87356 13.1219 2.37931 15.278C3.11753 18.4251 5.57488 20.8824 8.72207 21.6207C10.8781 22.1264 13.1219 22.1264 15.278 21.6207C18.4251 20.8824 20.8824 18.4251 21.6207 15.278C22.1264 13.1219 22.1264 10.8781 21.6207 8.72208C20.8824 5.57488 18.4251 3.11753 15.278 2.37931C13.1219 1.87356 10.8781 1.87356 8.72206 2.37931ZM14.8212 4.32646C17.2289 4.89121 19.1088 6.77113 19.6735 9.17881C20.1088 11.0345 20.1088 12.9655 19.6735 14.8212C19.1088 17.2289 17.2289 19.1088 14.8212 19.6735C12.9655 20.1088 11.0345 20.1088 9.17881 19.6735C6.77113 19.1088 4.89121 17.2289 4.32646 14.8212C3.89118 12.9655 3.89118 11.0345 4.32646 9.1788C4.89121 6.77114 6.77114 4.89121 9.1788 4.32646C10.9019 3.92227 12.6901 3.8934 14.4225 4.23985L14.8212 4.32646ZM12.6547 8.88338C12.5969 8.38604 12.1742 8 11.6614 8C11.1091 8 10.6614 8.44772 10.6614 9V12.6939L10.6695 12.8208C10.7069 13.1133 10.8722 13.377 11.1246 13.5376L13.9632 15.3437L14.0652 15.4006C14.5158 15.6189 15.0684 15.4695 15.3437 15.0368L15.4006 14.9348C15.6189 14.4842 15.4695 13.9316 15.0368 13.6563L12.661 12.145L12.6614 9L12.6547 8.88338Z"
                  fill="#091B3D"
                  fill-opacity="0.4"
                />
              </svg>