<svg
                width="20"
                height="20"
                viewBox="0 0 20 20"
                fill="none"
                xmlns="http://www.w3.org/2000/svg"
              >
                <path
                  fill-rule="evenodd"
                  clip-rule="evenodd"
                  d="M13.7935 0.380433L14.0053 0.323431C14.8645 0.121878 15.7554 0.0962705 16.6241 0.247766L16.9945 0.323428C18.2379 0.615088 19.232 1.5434 19.6195 2.79359L19.6765 3.00548C19.878 3.86467 19.9036 4.75542 19.7467 5.65253L19.6765 5.99454C19.3848 7.23793 18.4565 8.23205 17.2063 8.61955L16.9945 8.67655C16.1353 8.87811 15.2444 8.90371 14.3473 8.74685L14.0053 8.67656C12.7619 8.3849 11.7678 7.45659 11.3803 6.2064L11.3233 5.9945C11.0928 5.0115 11.0928 3.98848 11.3233 3.00544C11.6149 1.76205 12.5433 0.767932 13.7935 0.380433ZM16.5659 2.27676L16.2805 2.21803C15.6773 2.11284 15.0587 2.13062 14.4963 2.26191L14.3526 2.30037C13.8125 2.46803 13.4 2.9098 13.2705 3.4621C13.1104 4.14476 13.1104 4.85522 13.2618 5.50363L13.3003 5.64734C13.4679 6.18731 13.9097 6.59984 14.4339 6.72322L14.7192 6.78195C15.3225 6.88715 15.9411 6.86936 16.5035 6.73807L16.6472 6.69961C17.1872 6.53195 17.5998 6.09019 17.7231 5.56609L17.7818 5.28069C17.887 4.67738 17.8692 4.05878 17.738 3.49635L17.6995 3.35265C17.5319 2.81267 17.0901 2.40015 16.5659 2.27676ZM3.00532 0.323429L2.79347 0.380432C1.54328 0.767927 0.614985 1.76204 0.323328 3.00543C0.0927452 3.98846 0.0927451 5.01152 0.323327 5.99456L0.380333 6.20641C0.767827 7.4566 1.76194 8.3849 3.00533 8.67656L3.3473 8.74685C4.24445 8.90371 5.13524 8.87811 5.99447 8.67656L6.20631 8.61955C7.4565 8.23206 8.3848 7.23795 8.67646 5.99456L8.74675 5.65259C8.90361 4.75543 8.87801 3.86464 8.67646 3.00542L8.61945 2.79357C8.23196 1.54338 7.23785 0.615084 5.99446 0.323427L5.62411 0.247765C4.75534 0.0962712 3.86454 0.121878 3.00532 0.323429ZM5.28054 2.21803L5.56593 2.27676C6.0901 2.40015 6.53186 2.81266 6.69951 3.35266L6.73797 3.49637C6.86927 4.05881 6.88705 4.67737 6.78185 5.28064L6.72312 5.56603C6.59974 6.0902 6.18723 6.53196 5.64723 6.69961L5.50352 6.73807C4.94108 6.86937 4.32251 6.88715 3.71925 6.78195L3.43386 6.72322C2.90969 6.59984 2.46793 6.18733 2.30027 5.64733L2.26181 5.50362C2.11036 4.8552 2.11036 4.14478 2.27048 3.46216C2.40005 2.90979 2.81256 2.46803 3.35256 2.30037L3.49627 2.26191C4.05871 2.13062 4.67727 2.11284 5.28054 2.21803ZM3.00538 11.3234L2.79349 11.3804C1.5433 11.7679 0.614989 12.762 0.323329 14.0054C0.0927445 14.9884 0.0927445 16.0116 0.323329 16.9946L0.380333 17.2064C0.767833 18.4566 1.76196 19.3849 3.00535 19.6766L3.34736 19.7468C4.24446 19.9037 5.13521 19.8781 5.9944 19.6766L6.2063 19.6196C7.45649 19.2321 8.3848 18.238 8.67646 16.9946L8.74675 16.6526C8.90361 15.7554 8.87801 14.8646 8.67645 14.0054L8.61945 13.7936C8.23195 12.5434 7.23783 11.615 5.99444 11.3234L5.62406 11.2478C4.75532 11.0963 3.86457 11.1219 3.00538 11.3234ZM5.28059 13.2181L5.56599 13.2768C6.09009 13.4001 6.53185 13.8126 6.69951 14.3527L6.73797 14.4964C6.86927 15.0588 6.88705 15.6774 6.78185 16.2806L6.72312 16.566C6.59974 17.0902 6.18721 17.532 5.64724 17.6996L5.50353 17.7381C4.94111 17.8693 4.3225 17.8871 3.7192 17.7819L3.4338 17.7232C2.9097 17.5999 2.46793 17.1873 2.30027 16.6473L2.26181 16.5036C2.11036 15.8552 2.11036 15.1448 2.27048 14.4622C2.40005 13.9098 2.81257 13.468 3.35255 13.3004L3.49625 13.2619C4.05868 13.1307 4.67729 13.1129 5.28059 13.2181ZM14.0054 11.3234L13.7935 11.3804C12.5433 11.7679 11.6149 12.7621 11.3233 14.0054C11.0928 14.9885 11.0928 16.0115 11.3233 16.9945L11.3803 17.2064C11.7678 18.4566 12.762 19.3849 14.0053 19.6766L14.3473 19.7468C15.2444 19.9037 16.1352 19.8781 16.9944 19.6766L17.2063 19.6196C18.4565 19.2321 19.3848 18.2379 19.6765 16.9945L19.7467 16.6525C19.9036 15.7554 19.878 14.8646 19.6765 14.0055L19.6195 13.7936C19.232 12.5434 18.2378 11.615 16.9944 11.3234L16.6241 11.2478C15.7553 11.0963 14.8645 11.1219 14.0054 11.3234ZM16.2806 13.2181L16.566 13.2768C17.0901 13.4001 17.5319 13.8127 17.6995 14.3526L17.738 14.4964C17.8692 15.0588 17.887 15.6774 17.7818 16.2807L17.7231 16.5661C17.5998 17.0902 17.1872 17.532 16.6472 17.6996L16.5035 17.7381C15.9411 17.8693 15.3225 17.8871 14.7192 17.7819L14.4338 17.7232C13.9097 17.5999 13.4679 17.1873 13.3003 16.6473L13.2618 16.5036C13.1104 15.8553 13.1104 15.1447 13.2705 14.4621C13.4 13.9098 13.8126 13.468 14.3525 13.3004L14.4963 13.2619C15.0587 13.1307 15.6773 13.1129 16.2806 13.2181Z"
                  fill="#091B3D"
                  fill-opacity="0.4"
                />
              </svg>