<svg width="14" height="10" viewBox="0 0 14 10" fill="none" xmlns="http://www.w3.org/2000/svg">
<path fill-rule="evenodd" clip-rule="evenodd" d="M6.84207 0.342876C7.17708 0.727149 7.16599 1.29495 6.83487 1.66548L6.74544 1.75378L4.1681 4.00001H12.5001C13.0524 4.00001 13.5001 4.44773 13.5001 5.00001C13.5001 5.51285 13.1141 5.93552 12.6167 5.99329L12.5001 6.00001H4.1691L6.74544 8.24624C7.16173 8.60917 7.205 9.24086 6.84207 9.65715C6.50706 10.0414 5.94305 10.1078 5.53083 9.83034L5.43116 9.75379L0.820163 5.7334L0.746329 5.65715L0.704452 5.60584L0.647774 5.5233L0.591954 5.41926L0.552871 5.32139L0.526687 5.2294L0.50617 5.11076L0.500977 4.95726C0.503652 4.89379 0.512352 4.83045 0.527138 4.76817L0.559558 4.65954L0.594987 4.57429L0.646498 4.47879L0.689802 4.41362L0.767007 4.31988L0.842961 4.24624L5.43116 0.246244C5.84746 -0.116683 6.47914 -0.0734194 6.84207 0.342876Z" fill="#091B3D"/>
</svg>
