<svg width="24" height="24" viewBox="0 0 24 24" fill="none" xmlns="http://www.w3.org/2000/svg">
<rect width="24" height="24" rx="8" fill="#2772F0"/>
<path d="M11.9982 16.168C13.9422 16.168 15.2382 14.944 15.2382 13.12C15.2382 11.272 14.0022 10.048 12.1422 10.048C11.5662 10.048 10.8582 10.288 10.3782 10.648L10.5822 9.04H14.7822V7.768H9.40617L8.87817 12.064L10.1862 12.232C10.4742 11.68 11.1102 11.32 11.7942 11.32C13.0062 11.32 13.8102 12.04 13.8102 13.132C13.8102 14.32 12.8862 14.896 11.9622 14.896C10.8702 14.896 10.1262 14.2 10.0782 13.168H8.75817C8.75817 15.088 10.0542 16.168 11.9982 16.168Z" fill="white"/>
</svg>
