<svg 
              width="25"
              height="24"
              viewBox="0 0 25 24"
              fill="none"
              xmlns="http://www.w3.org/2000/svg"
            >
              <path
                fill-rule="evenodd"
                clip-rule="evenodd"
                d="M12.5 7C13.0128 7 13.4355 7.38604 13.4933 7.88338L13.5 8V11H16.5C17.0523 11 17.5 11.4477 17.5 12C17.5 12.5128 17.114 12.9355 16.6166 12.9933L16.5 13H13.5V16C13.5 16.5523 13.0523 17 12.5 17C11.9872 17 11.5645 16.614 11.5067 16.1166L11.5 16V13H8.5C7.94772 13 7.5 12.5523 7.5 12C7.5 11.4872 7.88604 11.0645 8.38338 11.0067L8.5 11H11.5V8C11.5 7.44772 11.9477 7 12.5 7Z"
                fill="#2772F0"
              />
            </svg>