 <svg
                width="24"
                height="24"
                viewBox="0 0 24 24"
                fill="none"
                xmlns="http://www.w3.org/2000/svg"
              >
                <path
                  fill-rule="evenodd"
                  clip-rule="evenodd"
                  d="M7.16564 5.94089C7.32584 6.27951 7.67061 6.51375 8.07008 6.51375C8.62236 6.51375 9.07008 6.06603 9.07008 5.51375V4.99054C9.16359 4.96318 9.25801 4.93804 9.35329 4.91517C11.0942 4.49723 12.9058 4.49723 14.6467 4.91517C14.742 4.93804 14.8364 4.96318 14.9299 4.99054V5.51375C14.9299 6.06603 15.3776 6.51375 15.9299 6.51375C16.3294 6.51375 16.6742 6.27951 16.8344 5.94089C17.3371 6.31496 17.782 6.76622 18.1528 7.27886H5.84719C6.21797 6.76622 6.66291 6.31496 7.16564 5.94089ZM9.06755 2.92827C9.03078 2.40946 8.59825 2 8.07008 2C7.5178 2 7.07008 2.44772 7.07008 3V3.64827C4.96707 4.7398 3.40787 6.73313 2.85855 9.12982C2.38048 11.2156 2.38048 13.3861 2.85855 15.4719C3.55643 18.5168 5.88428 20.9106 8.88643 21.6313C10.9343 22.1229 13.0657 22.1229 15.1136 21.6313C18.1157 20.9106 20.4436 18.5167 21.1415 15.4719C21.6195 13.3861 21.6195 11.2156 21.1415 9.12983C20.5921 6.73314 19.0329 4.73979 16.9299 3.64827V3C16.9299 2.44772 16.4822 2 15.9299 2C15.4018 2 14.9692 2.40946 14.9325 2.92827C13.0007 2.49286 10.9993 2.49286 9.06755 2.92827ZM4.88377 9.27886C4.85625 9.3771 4.83098 9.47638 4.808 9.57664C4.39733 11.3684 4.39733 13.2333 4.808 15.0251C5.34073 17.3494 7.10919 19.1478 9.35329 19.6865C11.0942 20.1045 12.9058 20.1045 14.6467 19.6866C16.8908 19.1478 18.6593 17.3494 19.192 15.0251C19.6027 13.2333 19.6027 11.3684 19.192 9.57664C19.169 9.47638 19.1437 9.37711 19.1162 9.27886H4.88377Z"
                  fill="#091B3D"
                  fill-opacity="0.4"
                />
              </svg>