<svg width="24" height="24" viewBox="0 0 24 24" fill="none" xmlns="http://www.w3.org/2000/svg">
<path fill-rule="evenodd" clip-rule="evenodd" d="M13 3C13 2.44772 12.5523 2 12 2C10.8973 2 9.79741 2.12706 8.72206 2.37931C5.57488 3.11753 3.11753 5.57488 2.37931 8.72206C1.87356 10.8781 1.87356 13.1219 2.37931 15.278C3.11753 18.4251 5.57488 20.8824 8.72207 21.6207C10.8781 22.1264 13.1219 22.1264 15.278 21.6207C18.4251 20.8824 20.8824 18.4251 21.6207 15.278C21.8729 14.2026 22 13.1028 22 12C22 11.4477 21.5523 11 21 11C20.4477 11 20 11.4477 20 12C20 12.9491 19.8907 13.8957 19.6735 14.8212C19.1088 17.2289 17.2289 19.1088 14.8212 19.6735C12.9655 20.1088 11.0345 20.1088 9.17881 19.6735C6.77113 19.1088 4.89121 17.2289 4.32646 14.8212C3.89118 12.9655 3.89118 11.0345 4.32646 9.1788C4.89121 6.77114 6.77114 4.89121 9.1788 4.32645C10.1043 4.10936 11.051 4 12 4C12.5523 4 13 3.55228 13 3ZM16.2695 2.98319C16.899 2.35366 17.7529 2 18.6432 2C20.4971 2 22 3.50292 22 5.35684C22 6.24714 21.6463 7.10097 21.0168 7.73048L17.4264 11.3209C15.7374 13.0099 13.621 14.2082 11.3036 14.7875L10.6098 14.961C9.66114 15.1984 8.80173 14.3389 9.03896 13.3904L9.21246 12.6964C9.79183 10.379 10.9901 8.26265 12.6791 6.57363L16.2695 2.98319ZM20 5.35684C20 4.60748 19.3925 4 18.6432 4C18.4252 4 18.2126 4.05245 18.0224 4.15034C18.0494 4.93528 19.0647 5.95063 19.8497 5.97763C19.9476 5.78736 20 5.57481 20 5.35684ZM16.4248 5.65635C16.8392 6.46179 17.5382 7.16084 18.3437 7.57522L16.0122 9.9067L15.7394 10.1704C14.5391 11.2919 13.1074 12.134 11.5473 12.6386L11.28 12.719L11.3614 12.4527C11.9048 10.7726 12.8397 9.24146 14.0933 7.98784L16.4248 5.65635Z" fill="#091B3D" fill-opacity="0.4"/>
</svg>
